<svg id="Layer_1" data-name="Layer 1" xmlns="http://www.w3.org/2000/svg" viewBox="0 0 307.12 187.12"><defs><style>.cls-1{fill:#fff;}</style></defs><title>logo</title><path class="cls-1" d="M973.52,226.76c.56-1.07.61-2.57-.8-4.29a24.7,24.7,0,0,0-8.24-6.2c-8.08-4.08-12.33-4.42-12.33-4.42.43-11.47,2-13.42,2-13.42-1.11.34-7.82,1.78-7.31,13.08,0,0-2.49,1.75-3.14,2.29-14.36,12.16-15.43,35.75-13.17,46.88a54.08,54.08,0,0,0,18.76,31.15c-16.23-10.11-56.48-4.37-60.92,33.56C884.59,357.34,931,385.55,931,385.55c-.68-2-10.27-27.17-9.66-38.74.23-4.26,2.84-9.66,9.68-9.66a9.25,9.25,0,0,1,9.63,9.66c-.35,13.48-9.65,38.74-9.65,38.74,51.79-26.54,51.62-68.55,50.26-87-1.31-17.7-9-30.37-15.33-41.06-9.91-16.81-.08-29-.08-29s-.64-.87,5.34-.29a2.78,2.78,0,0,0,2.29-1.4" transform="translate(-888.12 -198.43)"/><path class="cls-1" d="M1091.47,257.72a3.5,3.5,0,0,0-2.26-.73h-43a3,3,0,0,0-3.18,3.18V323.8a3,3,0,0,0,3.18,3.13h1.62a3,3,0,0,0,3.27-3.13V303.62h30.56a3.15,3.15,0,0,0,2.37-.93,3.22,3.22,0,0,0,.86-2.29v-1.62a3.18,3.18,0,0,0-1-2.47,3.3,3.3,0,0,0-2.26-.8h-30.56V265h38.12a3.31,3.31,0,0,0,2.36-.88,3.13,3.13,0,0,0,1-2.35v-1.57a3,3,0,0,0-1.06-2.5" transform="translate(-888.12 -198.43)"/><path class="cls-1" d="M1112.87,257.85a3.22,3.22,0,0,0-2.29-.86H1109a3.18,3.18,0,0,0-2.34.88,3.13,3.13,0,0,0-.89,2.3v63.58a3,3,0,0,0,3.23,3.18h1.61a3,3,0,0,0,3.23-3.18V260.17a3.07,3.07,0,0,0-.94-2.32" transform="translate(-888.12 -198.43)"/><path class="cls-1" d="M1194,282.53h0a37.94,37.94,0,0,0-3.38-8.53,35.64,35.64,0,0,0-5.23-7.23,33.8,33.8,0,0,0-6.78-5.6,33.35,33.35,0,0,0-8-3.64,31.76,31.76,0,0,0-17.92,0,33.45,33.45,0,0,0-8,3.64,33.85,33.85,0,0,0-6.79,5.6,35.64,35.64,0,0,0-5.23,7.23,37.69,37.69,0,0,0-3.36,8.54,38.67,38.67,0,0,0,0,19,37.63,37.63,0,0,0,3.36,8.51,35.71,35.71,0,0,0,5.23,7.24,33.91,33.91,0,0,0,6.79,5.6,32.51,32.51,0,0,0,8,3.61,32.17,32.17,0,0,0,17.9,0,32.75,32.75,0,0,0,8-3.61,34.14,34.14,0,0,0,6.78-5.6,35.43,35.43,0,0,0,5.23-7.24,38,38,0,0,0,3.38-8.51,37.78,37.78,0,0,0,0-19m-6.48,9.5a28.68,28.68,0,0,1-.94,7.37A29.73,29.73,0,0,1,1184,306a28.32,28.32,0,0,1-4.08,5.62,26.42,26.42,0,0,1-5.24,4.34,24.22,24.22,0,0,1-13,3.75,23.81,23.81,0,0,1-10-2.15,26.69,26.69,0,0,1-8.24-5.92,28.11,28.11,0,0,1-5.57-8.82,29.54,29.54,0,0,1-1.1-18.18,30,30,0,0,1,2.62-6.66,27.73,27.73,0,0,1,4.05-5.61,26.53,26.53,0,0,1,5.26-4.34,25.41,25.41,0,0,1,6.16-2.8,23.35,23.35,0,0,1,6.82-1,23.65,23.65,0,0,1,10,2.18,26.65,26.65,0,0,1,8.24,6,28.74,28.74,0,0,1,7.66,19.65" transform="translate(-888.12 -198.43)"/></svg>